<svg width="1075" height="909" viewBox="0 0 1075 909" fill="none" xmlns="http://www.w3.org/2000/svg">
<g clip-path="url(#clip0_19_176)">
<path d="M961.166 444.444C961.166 452.608 960.955 460.716 960.535 468.766C959.009 498.862 954.565 528.716 947.272 557.863C947.26 557.875 947.26 557.875 947.272 557.888C946.315 561.743 945.299 565.586 944.225 569.392C944.178 569.576 944.131 569.748 944.073 569.92C942.485 575.629 940.788 581.284 938.983 586.887V586.899C910.606 674.925 856.72 751.39 784.893 805.555C713.066 859.72 626.908 888.862 538.521 888.888C338.606 888.888 171.124 742.946 127.155 546.838C119.638 513.281 115.854 478.919 115.877 444.444C115.877 437.593 116.024 430.779 116.32 424.002C119.824 341.151 145.413 261.006 190.166 192.719C190.703 191.884 191.252 191.049 191.812 190.227C268.192 75.224 395.009 0 538.521 0C741.344 0 910.787 150.227 951.72 350.644C951.727 350.65 951.731 350.659 951.732 350.669C954.371 363.585 956.464 376.697 958.013 390.006C960.121 408.067 961.174 426.247 961.166 444.444Z" fill="#F2F2F2"/>
<path d="M1071.22 817.214C1068.07 829.215 1063.14 840.62 1056.62 851.014C1042.05 874.181 1021.19 891.897 998.276 906.078C996.688 907.072 995.077 908.042 993.466 909H977.389L976.829 907.649V907.637L976.175 906.078L976.093 905.894L976.058 906.078L975.416 909H967.524C966.87 908.03 966.228 907.06 965.597 906.078C964.675 904.641 963.788 903.193 962.947 901.719C961.463 899.143 960.137 896.469 958.978 893.715C958.837 893.408 958.721 893.101 958.604 892.794L959.129 892.192L956.946 882.149L961.336 881.388L956.526 865.783C956.701 865.206 956.899 864.629 957.109 864.052C959.806 856.87 964.873 851.505 970.886 846.999C977.074 842.346 984.278 838.613 990.898 834.734C994.003 832.904 997.062 830.977 1000.04 828.939V828.926C1003.85 826.336 1007.54 823.565 1011.12 820.615C1011.18 820.574 1011.24 820.528 1011.29 820.479C1011.34 820.442 1011.39 820.401 1011.43 820.357C1027.49 807.17 1041.07 790.963 1051.49 772.561L1051.5 772.56L1051.5 772.557L1051.5 772.553L1051.5 772.548C1051.85 771.959 1052.18 771.37 1052.51 770.768V770.756C1056.78 763.035 1060.45 754.968 1063.49 746.631V746.618C1063.73 746.005 1063.94 745.391 1064.16 744.777C1064.46 745.317 1064.76 745.857 1065.04 746.397L1065.04 746.398L1065.04 746.401L1065.05 746.405L1065.05 746.41C1076.37 767.711 1077.45 793.371 1071.22 817.214Z" fill="#F0F0F0"/>
<path d="M1065.05 746.41C1065.16 757.778 1064.04 769.122 1061.7 780.222C1060.64 785.301 1059.34 790.317 1057.77 795.249C1054.74 804.898 1050.78 814.196 1045.95 822.996C1045.68 823.475 1045.42 823.942 1045.14 824.408V824.421C1043.08 828.082 1040.84 831.631 1038.43 835.053C1034.78 840.505 1030.28 845.263 1025.12 849.123C1020.9 852.054 1016.13 853.993 1011.13 854.807C1010.2 854.991 1009.24 855.127 1008.27 855.249C1004.41 855.728 1000.41 855.912 996.584 856.772C994.644 857.175 992.755 857.813 990.956 858.675C984.791 861.683 981.324 867.981 979.806 874.709C979.538 875.888 979.327 877.079 979.164 878.27C977.891 887.416 979.292 896.919 978.569 906.078C978.487 907.048 978.382 908.03 978.253 909H977.389L976.829 907.65V907.637C976.887 907.122 976.934 906.606 976.981 906.078C977.261 901.578 977.296 897.065 977.086 892.561C977.039 890.535 977.004 888.497 977.027 886.459C977.051 884.826 977.109 883.193 977.226 881.572V881.56C977.308 880.553 977.401 879.559 977.529 878.564C977.9 875.519 978.614 872.531 979.654 869.663C980.67 866.708 982.269 864.012 984.345 861.752C986.422 859.492 988.929 857.72 991.703 856.551C993.398 855.883 995.144 855.369 996.922 855.016C1000.83 854.23 1004.87 854.034 1008.81 853.518C1009.23 853.469 1009.65 853.408 1010.06 853.334C1010.58 853.248 1011.1 853.15 1011.61 853.052C1016.76 852.091 1021.62 849.875 1025.81 846.581C1030.78 842.439 1035.11 837.501 1038.63 831.947C1040.54 829.061 1042.36 826.115 1044.06 823.082C1044.06 823.081 1044.06 823.079 1044.06 823.078C1044.06 823.076 1044.06 823.075 1044.06 823.074C1044.06 823.072 1044.06 823.072 1044.06 823.071C1044.06 823.07 1044.07 823.07 1044.07 823.07C1044.15 822.923 1044.23 822.788 1044.31 822.64L1044.32 822.616C1051.59 809.566 1056.89 795.415 1060.04 780.664C1060.14 780.124 1060.26 779.583 1060.38 779.043C1062.54 768.392 1063.59 757.522 1063.49 746.631V746.618C1063.49 746.103 1063.48 745.599 1063.47 745.084C1063.45 744.028 1065 743.795 1065.02 744.85C1065.04 745.366 1065.05 745.882 1065.04 746.397C1065.04 746.397 1065.04 746.398 1065.04 746.398C1065.04 746.399 1065.04 746.4 1065.04 746.401C1065.04 746.402 1065.05 746.403 1065.05 746.405C1065.05 746.406 1065.05 746.408 1065.05 746.41Z" fill="white"/>
<path d="M1044.47 824.076C1048.92 826.452 1054.03 827.088 1058.88 825.87C1063.74 824.652 1068.02 821.659 1070.97 817.426C1071.56 816.568 1070.32 815.557 1069.73 816.417C1066.99 820.363 1063 823.151 1058.48 824.275C1053.96 825.4 1049.2 824.787 1045.07 822.549C1044.17 822.063 1043.58 823.593 1044.47 824.076Z" fill="white"/>
<path d="M1011.76 853.541C1008.51 843.374 1009.02 832.292 1013.19 822.504C1013.61 821.535 1012.16 820.91 1011.74 821.878C1007.42 832.072 1006.91 843.605 1010.31 854.178C1010.64 855.185 1012.08 854.543 1011.76 853.541Z" fill="white"/>
<path d="M1060.83 779.194C1058.92 778.651 1057.18 777.621 1055.75 776.194C1054.32 774.766 1053.25 772.988 1052.63 771.018C1052.32 770.007 1050.87 770.65 1051.18 771.655C1051.87 773.828 1053.06 775.791 1054.64 777.371C1056.21 778.951 1058.13 780.101 1060.23 780.72C1060.43 780.796 1060.64 780.792 1060.83 780.708C1061.02 780.625 1061.17 780.468 1061.26 780.27C1061.33 780.068 1061.33 779.841 1061.25 779.639C1061.17 779.438 1061.02 779.278 1060.83 779.194Z" fill="white"/>
<path d="M1000.04 828.926V828.939C999.677 837.706 998.635 846.427 996.922 855.016V855.028C996.829 855.618 996.7 856.195 996.584 856.772C993.766 870.055 989.815 883.044 984.78 895.581C983.39 899.117 981.935 902.616 980.413 906.078C979.993 907.06 979.561 908.03 979.117 909H977.389L976.829 907.65V907.637L976.175 906.078L976.093 905.894L976.058 906.078L975.416 909H958.72L955.475 906.078L950.746 901.818L957.354 894.23L958.44 892.978L958.604 892.794L959.129 892.192L956.946 882.149L961.336 881.388L956.526 865.783L954.249 858.405L953.677 856.551L950.349 845.759L940.309 847.736L938.674 841.72C941.684 834.384 944.188 826.83 946.169 819.117C946.181 819.055 946.204 819.006 946.216 818.945C951.521 798.169 953.112 776.538 950.91 755.151V755.139C950.84 754.452 950.758 753.752 950.664 753.077V753.052C949.664 744.189 947.977 735.426 945.621 726.852C945.457 726.201 945.27 725.563 945.095 724.924C945.632 725.17 946.158 725.403 946.695 725.649L946.707 725.661H946.73C947.582 726.054 948.434 726.471 949.263 726.913C969.181 737.091 983.834 756.195 992.158 778.221C992.182 778.282 992.205 778.331 992.228 778.393C996.572 789.939 999.16 802.132 999.899 814.525C1000.18 819.32 1000.23 824.127 1000.04 828.926Z" fill="#F0F0F0"/>
<path d="M969.742 909H967.897C967.313 908.005 966.683 907.036 966.053 906.078C965.048 904.592 964.013 903.14 962.947 901.719C962.025 900.492 961.102 899.276 960.18 898.061C959.223 896.796 958.277 895.532 957.354 894.23L958.44 892.978C958.615 893.223 958.79 893.469 958.977 893.715C961.966 897.852 965.2 901.83 967.967 906.078C968.586 907.036 969.182 908.006 969.742 909Z" fill="white"/>
<path d="M944.708 725.61C945.012 726.015 945.327 726.433 945.619 726.85C947.895 729.956 950.048 733.161 952.075 736.463C955.686 742.291 958.894 748.384 961.672 754.695C961.894 755.187 962.116 755.69 962.326 756.193C968.272 769.985 972.148 784.663 973.814 799.705C973.838 799.852 973.849 799.987 973.861 800.134C974.246 803.646 974.495 807.169 974.608 810.705C974.981 817.364 974.354 824.043 972.752 830.496C972.518 831.344 972.262 832.178 971.981 832.989C971.279 834.975 970.4 836.886 969.355 838.698C968.604 840.02 967.769 841.287 966.856 842.492C966.307 843.228 965.735 843.953 965.128 844.652C964.778 845.058 964.416 845.463 964.054 845.868C963.75 846.175 963.459 846.494 963.155 846.801C960.003 850.018 956.523 853.001 953.675 856.549L954.247 858.403C956.99 854.744 960.528 851.712 963.715 848.52C965.716 846.541 967.538 844.371 969.156 842.037C969.366 841.718 969.588 841.399 969.786 841.067C970.868 839.405 971.802 837.642 972.577 835.8C972.974 834.879 973.336 833.934 973.663 832.952C975.57 826.604 976.439 819.962 976.231 813.308C976.194 809.046 975.952 804.788 975.507 800.552C975.461 799.999 975.402 799.459 975.332 798.907C974.148 788.822 971.989 778.892 968.887 769.269C964.962 757.061 959.563 745.433 952.822 734.671C950.896 731.589 948.853 728.581 946.693 725.647C946.413 725.242 946.121 724.849 945.817 724.444C945.198 723.609 944.089 724.775 944.708 725.61Z" fill="white"/>
<path d="M974.776 800.707C979.689 799.788 984.131 797.062 987.309 793.016C990.487 788.971 992.194 783.869 992.125 778.623C992.121 778.409 992.037 778.205 991.892 778.054C991.748 777.904 991.553 777.818 991.35 777.816C991.146 777.813 990.95 777.894 990.802 778.04C990.653 778.187 990.565 778.389 990.556 778.602C990.628 783.488 989.038 788.24 986.071 792.001C983.105 795.762 978.957 798.283 974.378 799.111C973.383 799.292 973.787 800.887 974.776 800.707Z" fill="white"/>
<path d="M965.525 844.946C957.109 838.886 951.173 829.713 948.902 819.256C948.678 818.22 947.16 818.64 947.384 819.675C949.767 830.553 955.962 840.085 964.734 846.371C965.571 846.969 966.357 845.541 965.525 844.946Z" fill="white"/>
<path d="M962.137 754.517C960.307 755.29 958.323 755.572 956.363 755.338C954.404 755.105 952.53 754.363 950.91 753.18C950.081 752.571 949.295 754 950.119 754.605C951.914 755.904 953.985 756.72 956.149 756.983C958.314 757.246 960.507 756.947 962.536 756.113C962.734 756.052 962.901 755.913 963.005 755.726C963.109 755.539 963.142 755.317 963.096 755.106C963.042 754.895 962.911 754.715 962.732 754.604C962.552 754.494 962.339 754.463 962.137 754.517Z" fill="white"/>
<path d="M739.414 192.724H1.15969C0.849798 192.717 0.554887 192.583 0.338129 192.35C0.121372 192.117 0 191.804 0 191.478C0 191.152 0.121372 190.839 0.338129 190.606C0.554887 190.373 0.849798 190.238 1.15969 190.231H739.414C739.724 190.238 740.019 190.373 740.235 190.606C740.452 190.839 740.573 191.152 740.573 191.478C740.573 191.804 740.452 192.117 740.235 192.35C740.019 192.583 739.724 192.717 739.414 192.724Z" fill="#CACACA"/>
<path d="M27.2598 175.272C34.3045 175.272 40.0154 169.133 40.0154 161.56C40.0154 153.986 34.3045 147.847 27.2598 147.847C20.215 147.847 14.5042 153.986 14.5042 161.56C14.5042 169.133 20.215 175.272 27.2598 175.272Z" fill="#3F3D56"/>
<path d="M71.3247 175.272C78.3695 175.272 84.0803 169.133 84.0803 161.56C84.0803 153.986 78.3695 147.847 71.3247 147.847C64.28 147.847 58.5691 153.986 58.5691 161.56C58.5691 169.133 64.28 175.272 71.3247 175.272Z" fill="#3F3D56"/>
<path d="M115.389 175.272C122.434 175.272 128.145 169.133 128.145 161.56C128.145 153.986 122.434 147.847 115.389 147.847C108.345 147.847 102.634 153.986 102.634 161.56C102.634 169.133 108.345 175.272 115.389 175.272Z" fill="#3F3D56"/>
<path d="M713.008 151.246H681.706C681.086 151.259 680.495 151.527 680.061 151.993C679.626 152.459 679.383 153.086 679.383 153.738C679.383 154.391 679.626 155.017 680.061 155.483C680.495 155.949 681.086 156.218 681.706 156.231H713.008C713.628 156.218 714.219 155.949 714.653 155.483C715.088 155.017 715.331 154.391 715.331 153.738C715.331 153.086 715.088 152.459 714.653 151.993C714.219 151.527 713.628 151.259 713.008 151.246Z" fill="#3F3D56"/>
<path d="M713.008 160.601H681.706C681.086 160.614 680.495 160.883 680.061 161.349C679.626 161.815 679.383 162.441 679.383 163.094C679.383 163.746 679.626 164.373 680.061 164.839C680.495 165.305 681.086 165.573 681.706 165.586H713.008C713.628 165.573 714.219 165.305 714.653 164.839C715.088 164.373 715.331 163.746 715.331 163.094C715.331 162.441 715.088 161.815 714.653 161.349C714.219 160.883 713.628 160.614 713.008 160.601Z" fill="#3F3D56"/>
<path d="M713.008 169.945H681.706C681.086 169.957 680.495 170.226 680.061 170.692C679.626 171.158 679.383 171.784 679.383 172.437C679.383 173.089 679.626 173.716 680.061 174.182C680.495 174.648 681.086 174.916 681.706 174.929H713.008C713.628 174.916 714.219 174.648 714.653 174.182C715.088 173.716 715.331 173.089 715.331 172.437C715.331 171.784 715.088 171.158 714.653 170.692C714.219 170.226 713.628 169.957 713.008 169.945Z" fill="#3F3D56"/>
<path d="M194.579 243.523H161.433C142.739 282.225 129.58 323.616 122.38 366.359H194.579C196.88 366.363 199.16 365.89 201.286 364.966C203.413 364.042 205.345 362.686 206.972 360.975C208.599 359.264 209.889 357.232 210.767 354.996C211.646 352.759 212.096 350.363 212.092 347.943V261.927C212.086 257.046 210.239 252.367 206.955 248.916C203.672 245.466 199.221 243.526 194.579 243.523Z" fill="#CCCCCC"/>
<path d="M440.122 243.523H289.943C285.301 243.526 280.85 245.466 277.567 248.916C274.284 252.367 272.436 257.046 272.43 261.927V347.943C272.436 352.826 274.283 357.506 277.566 360.959C280.849 364.411 285.3 366.353 289.943 366.359H440.122C444.765 366.353 449.216 364.411 452.499 360.959C455.782 357.506 457.629 352.826 457.635 347.943V261.927C457.629 257.046 455.781 252.367 452.498 248.916C449.215 245.466 444.764 243.526 440.122 243.523Z" fill="#CCCCCC"/>
<path d="M685.664 243.523H535.486C530.844 243.526 526.393 245.466 523.11 248.916C519.826 252.367 517.979 257.046 517.973 261.927V347.943C517.978 352.826 519.825 357.506 523.108 360.959C526.391 364.411 530.843 366.353 535.486 366.359H685.664C690.307 366.353 694.759 364.411 698.042 360.959C701.325 357.506 703.172 352.825 703.177 347.943V261.927C703.171 257.046 701.324 252.367 698.04 248.916C694.757 245.466 690.306 243.526 685.664 243.523Z" fill="#CCCCCC"/>
<path d="M194.579 424.002H116.32C116.028 430.779 115.88 437.593 115.876 444.444C115.853 478.919 119.638 513.281 127.155 546.838H194.579C199.222 546.832 203.673 544.89 206.957 541.437C210.24 537.985 212.087 533.304 212.092 528.422V442.406C212.086 437.525 210.239 432.845 206.955 429.395C203.672 425.945 199.221 424.005 194.579 424.002Z" fill="#CCCCCC"/>
<path d="M440.122 424.002H289.943C285.301 424.005 280.85 425.945 277.567 429.395C274.284 432.845 272.436 437.525 272.43 442.406V528.422C272.436 533.304 274.283 537.985 277.566 541.437C280.849 544.89 285.3 546.832 289.943 546.838H440.122C444.765 546.832 449.216 544.89 452.499 541.437C455.782 537.985 457.629 533.304 457.635 528.422V442.406C457.629 437.525 455.781 432.845 452.498 429.395C449.215 425.945 444.764 424.005 440.122 424.002Z" fill="#CCCCCC"/>
<path d="M685.664 424.002H535.486C530.844 424.005 526.393 425.945 523.11 429.395C519.826 432.845 517.979 437.525 517.973 442.406V528.422C517.978 533.304 519.825 537.985 523.108 541.437C526.391 544.89 530.843 546.832 535.486 546.838H685.664C686.143 546.838 686.622 546.813 687.1 546.764C688.977 546.619 690.816 546.142 692.541 545.352C695.669 543.945 698.34 541.611 700.228 538.635C702.117 535.66 703.141 532.171 703.177 528.594V442.406C703.171 437.525 701.324 432.845 698.04 429.395C694.757 425.945 690.306 424.005 685.664 424.002Z" fill="#CCCCCC"/>
<path d="M197.714 386.902C216.903 386.902 232.458 370.544 232.458 350.366C232.458 330.187 216.903 313.829 197.714 313.829C178.525 313.829 162.969 330.187 162.969 350.366C162.969 370.544 178.525 386.902 197.714 386.902Z" fill="#15803D"/>
<path d="M192.974 369.381C192.374 369.381 191.782 369.234 191.246 368.952C190.709 368.67 190.242 368.26 189.882 367.755L180.403 354.465C180.099 354.038 179.877 353.552 179.751 353.035C179.626 352.518 179.598 351.98 179.669 351.451C179.741 350.923 179.911 350.415 180.17 349.956C180.428 349.496 180.771 349.095 181.177 348.775C181.583 348.455 182.045 348.222 182.536 348.089C183.028 347.957 183.54 347.928 184.042 348.003C184.544 348.079 185.028 348.257 185.465 348.529C185.901 348.801 186.283 349.161 186.587 349.588L192.789 358.282L208.716 333.159C208.997 332.714 209.359 332.332 209.781 332.035C210.203 331.737 210.676 331.53 211.174 331.425C211.672 331.32 212.185 331.319 212.683 331.422C213.182 331.526 213.656 331.732 214.078 332.028C214.501 332.324 214.864 332.705 215.146 333.149C215.429 333.593 215.625 334.091 215.725 334.615C215.824 335.139 215.824 335.678 215.725 336.202C215.626 336.726 215.43 337.224 215.148 337.668L196.19 367.571C195.847 368.112 195.386 368.559 194.845 368.873C194.304 369.188 193.699 369.362 193.081 369.38C193.046 369.381 193.01 369.381 192.974 369.381Z" fill="white"/>
<path d="M451.067 390.586C470.256 390.586 485.812 374.228 485.812 354.049C485.812 333.87 470.256 317.512 451.067 317.512C431.878 317.512 416.323 333.87 416.323 354.049C416.323 374.228 431.878 390.586 451.067 390.586Z" fill="#15803D"/>
<path d="M446.327 373.064C445.727 373.064 445.135 372.918 444.599 372.635C444.062 372.353 443.596 371.943 443.236 371.438L433.757 358.148C433.452 357.721 433.231 357.235 433.105 356.718C432.979 356.201 432.951 355.663 433.023 355.135C433.095 354.606 433.265 354.098 433.523 353.639C433.782 353.18 434.124 352.778 434.53 352.458C434.936 352.138 435.398 351.905 435.89 351.773C436.381 351.64 436.893 351.611 437.395 351.686C437.898 351.762 438.381 351.941 438.818 352.213C439.255 352.484 439.636 352.844 439.941 353.271L446.142 361.966L462.069 336.842C462.639 335.947 463.522 335.326 464.527 335.115C465.531 334.904 466.574 335.121 467.427 335.719C468.279 336.316 468.871 337.245 469.072 338.301C469.274 339.357 469.068 340.454 468.501 341.351L449.543 371.255C449.2 371.795 448.739 372.242 448.198 372.557C447.657 372.871 447.053 373.045 446.435 373.063C446.399 373.064 446.363 373.064 446.327 373.064Z" fill="white"/>
<path d="M947.226 550.933L936.351 440.234L933.48 394.675L963.92 388.887C963.92 388.887 968.479 420.207 972.466 438.587C976.401 456.724 967.224 548.502 966.981 550.923C969.216 553.025 970.792 555.791 971.5 558.856C972.208 561.92 972.015 565.138 970.945 568.085C969.876 571.031 967.981 573.567 965.512 575.356C963.043 577.146 960.115 578.104 957.116 578.106C954.117 578.107 951.188 577.151 948.717 575.365C946.246 573.578 944.349 571.044 943.277 568.099C942.205 565.153 942.009 561.935 942.714 558.87C943.419 555.805 944.993 553.037 947.226 550.933Z" fill="#A0616A"/>
<path d="M869.32 880.446L854.224 884.075L833.729 824.571L856.009 819.214L869.32 880.446Z" fill="#A0616A"/>
<path d="M872.048 874.339L868.195 875.26L867.798 875.358L850.18 872.338L849.667 872.252L842.311 881.484C837.286 882.693 832.924 885.952 830.182 890.542C827.441 895.133 826.546 900.681 827.694 905.966L827.717 906.076L827.846 906.616L830.087 906.076L876.52 894.904L872.048 874.339Z" fill="#2F2E41"/>
<path d="M959.315 890.825H943.829L936.463 828.014L959.318 828.015L959.315 890.825Z" fill="#A0616A"/>
<path d="M958.912 885.511L957.558 884.934L942.38 878.44L941.89 878.231L932.771 885.511C930.219 885.511 927.692 886.038 925.334 887.064C922.976 888.091 920.833 889.595 919.028 891.492C917.223 893.389 915.79 895.642 914.813 898.121C913.836 900.6 913.333 903.257 913.332 905.941V906.604L956.075 906.616H963.267V885.511H958.912Z" fill="#2F2E41"/>
<path d="M935.762 554.655L948.787 684.772C948.787 684.772 966.126 815.057 962.87 833.033C959.614 851.01 963.684 853.578 963.684 853.578L933.973 851.353C933.973 851.353 934.787 840.225 929.902 835.088C925.018 829.952 927.46 814.544 927.46 814.544L869.825 602.593L834.821 713.877C834.821 713.877 856.934 804.123 856.12 805.835C855.306 807.547 870.13 845.123 870.13 845.123L836.963 856.689C836.963 856.689 841.033 842.992 835.335 838.712C829.637 834.432 824.752 837.856 829.637 830.152C834.521 822.447 791.154 765.866 792.108 729.402C792.394 718.432 792.741 706.663 793.158 694.605C795.363 630.795 799.527 558.895 807.143 554.655C820.982 546.95 935.762 554.655 935.762 554.655Z" fill="#2F2E41"/>
<path d="M874.08 291.2C891.773 291.2 906.116 276.118 906.116 257.513C906.116 238.907 891.773 223.825 874.08 223.825C856.388 223.825 842.045 238.907 842.045 257.513C842.045 276.118 856.388 291.2 874.08 291.2Z" fill="#A0616A"/>
<path d="M981.045 463.294L937.545 474.905L937.847 462.066L934.545 458.383L927.949 422.045L920.945 327.967L944.983 341.373L945.012 341.397C949.21 346.253 952.72 351.719 955.436 357.627C964.497 377 973.202 419.669 977.759 444.453C977.916 444.972 978.218 445.43 978.626 445.766C980.886 447.949 982.362 450.884 982.802 454.077C983.243 457.271 982.623 460.526 981.045 463.294Z" fill="#3F3D56"/>
<path d="M723.983 504.925C723.983 504.925 784.026 438.358 784.586 437.103C788.781 403.61 800.844 388.835 802.652 390.439L833.788 401.782C833.788 401.782 824.526 432.622 818.256 450.94C812.264 468.444 743.21 511.198 742.057 513.309C743.295 516.181 743.674 519.381 743.144 522.485C742.614 525.589 741.2 528.451 739.09 530.692C736.98 532.933 734.273 534.447 731.326 535.035C728.38 535.623 725.333 535.256 722.59 533.983C719.846 532.71 717.534 530.592 715.96 527.907C714.386 525.223 713.624 522.099 713.776 518.95C713.927 515.8 714.983 512.773 716.806 510.268C718.629 507.764 721.131 505.901 723.983 504.925Z" fill="#A0616A"/>
<path d="M848.744 334.025C848.744 334.025 821.787 320.132 811.332 347.419C805.6 362.823 790.94 400.209 783.634 423.224C783.586 423.37 783.519 423.509 783.435 423.636C781.481 426.689 780.427 430.281 780.404 433.961C780.407 434.229 780.38 434.496 780.325 434.758C780.325 434.758 809.948 440.826 818.759 457.155L822.254 453.167L822.875 450.373L848.744 334.025Z" fill="#3F3D56"/>
<path d="M946.834 568.836C884.793 582.309 802.577 559.146 802.577 559.146L824.509 459.171L816.711 354.546C815.759 341.751 822.689 329.758 833.47 325.508L848.356 319.645L860.66 301.12L895.807 302.333L909.857 321.781L920.945 327.967L944.982 341.373L945.088 341.429V341.484L937.545 418.429L932.995 464.823C932.995 464.823 946.813 517.002 943.977 523.922C941.142 530.831 943.607 527.494 944.295 531.187C944.982 534.881 947.088 535.115 947.405 542.391C947.733 549.656 946.834 568.836 946.834 568.836Z" fill="#3F3D56"/>
<path d="M908.832 245.517C906.3 242.89 910.111 235.937 909.392 232.275C908.566 228.076 904.166 227.953 903.117 223.81C901.987 219.353 897.472 216.927 893.296 215.514C882.593 211.913 871.172 211.363 860.2 213.92C855.345 215.167 850.564 216.716 845.883 218.558C842.651 219.754 845.767 216.5 842.536 217.696C841.312 217.982 840.233 218.735 839.506 219.81C838.925 220.965 839.708 222.812 840.931 222.578C836.986 224.408 833.041 226.237 829.095 228.067C831.308 230.504 833.521 232.941 835.733 235.379C832.588 234.437 829.234 238.381 830.474 241.563C830.973 242.567 831.697 243.429 832.583 244.074C833.469 244.719 834.491 245.128 835.561 245.266C839.114 245.993 836.419 249.549 840.039 249.48C843.658 249.411 868.899 241.608 870.659 244.935C871.912 247.304 871.774 250.442 873.563 252.394C875.852 254.891 879.849 253.978 882.763 252.352C885.676 250.727 888.631 248.492 891.909 248.882C895.33 249.289 897.918 255.938 898.761 259.449C899.604 262.96 899.071 266.655 898.535 270.232C897.831 274.93 890.778 279.627 890.074 284.325C897.901 286.601 906.297 279.359 909.392 266.765C909.083 258.803 914.226 251.113 908.832 245.517Z" fill="#2F2E41"/>
<path d="M693.913 564.925C713.101 564.925 728.657 548.567 728.657 528.389C728.657 508.21 713.101 491.852 693.913 491.852C674.724 491.852 659.168 508.21 659.168 528.389C659.168 548.567 674.724 564.925 693.913 564.925Z" fill="#15803D"/>
<path d="M689.173 547.404C688.573 547.404 687.981 547.257 687.444 546.975C686.908 546.693 686.441 546.283 686.081 545.778L676.602 532.488C676.298 532.061 676.076 531.575 675.95 531.058C675.824 530.541 675.796 530.003 675.868 529.475C675.94 528.946 676.11 528.438 676.369 527.979C676.627 527.519 676.969 527.118 677.375 526.798C677.781 526.478 678.243 526.245 678.735 526.112C679.227 525.98 679.738 525.951 680.241 526.026C680.743 526.102 681.227 526.28 681.663 526.552C682.1 526.824 682.481 527.184 682.786 527.611L688.987 536.305L704.915 511.182C705.196 510.737 705.558 510.355 705.98 510.058C706.402 509.76 706.875 509.553 707.373 509.448C707.871 509.343 708.384 509.342 708.882 509.446C709.38 509.549 709.854 509.755 710.277 510.051C710.7 510.347 711.063 510.728 711.345 511.172C711.628 511.616 711.824 512.114 711.923 512.638C712.023 513.162 712.023 513.701 711.924 514.225C711.825 514.749 711.629 515.247 711.346 515.691L692.389 545.594C692.046 546.135 691.585 546.582 691.044 546.896C690.503 547.211 689.898 547.385 689.28 547.403C689.244 547.404 689.209 547.404 689.173 547.404Z" fill="white"/>
<path d="M1068.22 907.539C1068.22 907.731 1068.19 907.921 1068.12 908.099C1068.05 908.276 1067.95 908.438 1067.82 908.573C1067.69 908.709 1067.53 908.817 1067.37 908.89C1067.2 908.963 1067.02 909.001 1066.83 909H739.588C739.219 909 738.866 908.846 738.605 908.572C738.345 908.298 738.198 907.926 738.198 907.539C738.198 907.151 738.345 906.78 738.605 906.506C738.866 906.232 739.219 906.078 739.588 906.078H1066.83C1067.02 906.077 1067.2 906.115 1067.37 906.188C1067.53 906.261 1067.69 906.369 1067.82 906.505C1067.95 906.64 1068.05 906.802 1068.12 906.979C1068.19 907.157 1068.22 907.347 1068.22 907.539Z" fill="#CCCCCC"/>
</g>
<defs>
<clipPath id="clip0_19_176">
<rect width="1075" height="909" fill="white"/>
</clipPath>
</defs>
</svg>
