<svg width="1144" height="919" viewBox="0 0 1144 919" fill="none" xmlns="http://www.w3.org/2000/svg">
<g clip-path="url(#clip0_19_106)">
<path d="M852.849 881.626C888.941 908.782 934.287 921.652 979.759 917.645C1025.23 913.639 1067.45 893.053 1097.92 860.032C1128.39 827.011 1144.84 784.008 1143.97 739.68C1143.09 695.353 1124.96 652.993 1093.21 621.128L852.849 881.626Z" fill="#F2F2F2"/>
<path d="M411.271 273.191L188.131 512.049C200.308 537.747 218.686 560.215 241.706 577.55L482.066 317.053C462.344 297.235 438.09 282.209 411.271 273.191Z" fill="#F2F2F2"/>
<path d="M410.375 273.317V133.646H292.945V272.885C331.054 260.377 372.365 260.529 410.375 273.317Z" fill="#15803D"/>
<path d="M292.945 602.559V745.476H410.375V602.127C372.365 614.914 331.054 615.066 292.945 602.559Z" fill="#15803D"/>
<path d="M352.291 613.669C252.38 613.669 171.095 534.739 171.095 437.722C171.095 340.704 252.38 261.775 352.291 261.775C452.203 261.775 533.488 340.704 533.488 437.722C533.488 534.739 452.203 613.669 352.291 613.669ZM352.291 263.001C253.076 263.001 172.358 341.38 172.358 437.722C172.358 534.063 253.076 612.443 352.291 612.443C451.507 612.443 532.225 534.063 532.225 437.722C532.225 341.38 451.507 263.001 352.291 263.001Z" fill="black"/>
<path d="M224.759 437.722C224.759 470.566 238.196 502.064 262.113 525.288C286.029 548.512 318.468 561.559 352.291 561.559V313.885C318.468 313.885 286.029 326.932 262.113 350.156C238.196 373.38 224.759 404.878 224.759 437.722Z" fill="#575A89"/>
<path d="M352.292 313.885V561.559C386.115 561.559 418.553 548.512 442.47 525.288C466.387 502.064 479.824 470.566 479.824 437.722C479.824 404.878 466.387 373.38 442.47 350.156C418.553 326.932 386.115 313.885 352.292 313.885Z" fill="#15803D"/>
<path d="M352.291 461.018C362.055 461.018 369.969 453.333 369.969 443.852C369.969 434.372 362.055 426.687 352.291 426.687C342.528 426.687 334.614 434.372 334.614 443.852C334.614 453.333 342.528 461.018 352.291 461.018Z" fill="#2F2E41"/>
<path d="M352.261 380.901L356.665 414.829L361.07 448.757H352.261H343.453L347.857 414.829L352.261 380.901Z" fill="#2F2E41"/>
<path d="M457.695 444.816L400.227 446.903L342.76 448.988L342.792 444.115L342.824 439.24L400.259 442.028L457.695 444.816Z" fill="#2F2E41"/>
<path d="M539.801 452.435C536.878 452.435 535.698 450.484 534.203 448.015C533.829 447.399 533.425 446.73 532.956 446.023L534.019 445.36C534.498 446.082 534.911 446.764 535.292 447.394C536.78 449.854 537.6 451.209 539.801 451.209C547.112 451.209 553.06 439.383 553.06 424.847C553.06 410.312 547.112 398.486 539.801 398.486C535.58 398.486 532.646 401.015 530.285 406.686L529.114 406.226C531.695 400.025 534.991 397.26 539.801 397.26C547.808 397.26 554.322 409.635 554.322 424.847C554.322 440.059 547.808 452.435 539.801 452.435Z" fill="black"/>
<path d="M369.969 875.443C464.811 875.443 541.695 872.699 541.695 869.313C541.695 865.927 464.811 863.182 369.969 863.182C275.127 863.182 198.243 865.927 198.243 869.313C198.243 872.699 275.127 875.443 369.969 875.443Z" fill="#F2F2F2"/>
<path d="M977.325 221.926C991.969 221.926 1003.84 210.398 1003.84 196.178C1003.84 181.957 991.969 170.429 977.325 170.429C962.68 170.429 950.808 181.957 950.808 196.178C950.808 210.398 962.68 221.926 977.325 221.926Z" fill="#F2F2F2"/>
<path d="M180.565 5.76267e-05C150.303 0.0109345 120.529 7.40429 93.9773 21.5012C67.4251 35.5981 44.9458 55.9468 28.6036 80.6786C12.2615 105.41 2.58011 133.733 0.448651 163.045C-1.6828 192.357 3.80393 221.719 16.405 248.436L239.545 9.57728C220.571 3.21919 200.637 -0.0177267 180.565 5.76267e-05Z" fill="#F2F2F2"/>
<path d="M780.517 325.773C802.301 325.773 819.96 308.625 819.96 287.472C819.96 266.319 802.301 249.171 780.517 249.171C758.733 249.171 741.073 266.319 741.073 287.472C741.073 308.625 758.733 325.773 780.517 325.773Z" fill="#2F2E41"/>
<path d="M714.158 527.575C714.158 527.575 745.65 604.828 748.965 604.828C752.28 604.828 757.252 575.858 757.252 575.858L737.363 521.138L714.158 527.575Z" fill="#FFB9B9"/>
<path d="M760.567 316.739C760.567 316.739 768.854 350.538 765.54 356.975C762.225 363.413 772.169 373.07 772.169 373.07H795.374L811.948 347.319L815.263 336.053C815.263 336.053 805.318 310.302 806.976 307.083C808.633 303.864 760.567 316.739 760.567 316.739Z" fill="#FFB9B9"/>
<path opacity="0.1" d="M760.567 316.739C760.567 316.739 768.854 350.538 765.54 356.975C762.225 363.413 772.169 373.07 772.169 373.07H795.374L811.948 347.319L815.263 336.053C815.263 336.053 805.318 310.302 806.976 307.083C808.633 303.864 760.567 316.739 760.567 316.739Z" fill="black"/>
<path d="M853.385 863.948V881.651L874.931 886.48L876.589 863.948H853.385Z" fill="#575A89"/>
<path d="M765.54 546.889C765.54 546.889 742.335 587.125 750.622 608.047C758.91 628.97 790.401 731.974 790.401 731.974C790.401 731.974 808.633 789.913 808.633 793.132C808.633 796.351 823.55 867.166 828.523 868.776C833.495 870.385 878.246 875.213 879.904 870.385C881.561 865.557 883.219 839.806 878.246 834.977C873.274 830.149 846.755 680.472 846.755 680.472L843.44 630.579L884.876 754.506C884.876 754.506 896.478 828.54 901.451 833.368C906.423 838.196 891.506 843.024 896.478 847.853C901.451 852.681 919.683 865.557 918.025 870.385C916.368 875.213 957.804 875.213 962.777 871.994C967.749 868.775 966.091 818.883 966.091 818.883L942.887 751.287L916.368 587.124C916.368 587.124 908.081 538.841 901.451 538.841C894.821 538.841 765.54 546.889 765.54 546.889Z" fill="#2F2E41"/>
<path d="M858.357 875.213C858.357 875.213 845.097 863.947 838.467 867.166C831.838 870.385 810.291 900.964 803.661 899.355C797.031 897.745 787.086 916.675 803.661 918.285C820.235 919.894 846.755 916.675 846.755 916.675C852.238 917.561 857.774 918.098 863.329 918.285C869.959 918.285 884.876 919.894 884.876 918.285C884.876 916.675 881.561 880.042 879.904 880.042C878.246 880.042 860.014 880.042 858.357 875.213Z" fill="#2F2E41"/>
<path d="M949.517 863.947C949.517 863.947 932.942 860.728 931.285 863.947C929.627 867.166 922.998 876.823 922.998 878.432C922.998 880.042 926.312 899.355 926.312 900.964C926.312 902.574 929.627 907.402 932.942 910.621C933.879 911.39 934.543 912.425 934.84 913.58C935.138 914.735 935.054 915.952 934.6 917.059C934.6 917.059 977.694 921.887 977.694 915.449C977.694 909.011 972.721 894.526 969.406 891.308C966.091 888.089 959.462 865.557 949.517 863.947Z" fill="#2F2E41"/>
<path d="M780.457 331.224C799.68 331.224 815.263 316.092 815.263 297.426C815.263 278.76 799.68 263.628 780.457 263.628C761.234 263.628 745.65 278.76 745.65 297.426C745.65 316.092 761.234 331.224 780.457 331.224Z" fill="#FFB9B9"/>
<path d="M767.197 358.585C767.197 358.585 787.086 369.851 798.689 352.147C810.291 334.443 846.755 387.555 846.755 387.555L856.699 551.717C856.699 551.717 838.467 553.326 806.976 561.374C775.484 569.421 760.567 550.107 760.567 550.107L758.91 456.76L762.225 413.306L757.252 377.898L760.567 356.975L767.197 358.585Z" fill="#15803D"/>
<path d="M730.733 379.507C730.733 379.507 717.473 382.726 714.159 405.258C710.844 427.79 704.214 495.387 704.214 495.387L712.501 535.623C712.501 535.623 735.705 517.919 743.993 525.966L739.02 501.824L743.993 487.339L729.076 424.572L730.733 379.507Z" fill="#15803D"/>
<path d="M763.698 331.224C763.698 331.224 760.567 331.224 760.567 342.49C760.567 353.756 729.076 369.851 729.076 369.851C729.076 369.851 725.761 374.679 725.761 387.555C725.761 400.43 725.761 431.009 729.076 440.666C732.391 450.323 737.363 482.511 739.02 485.73C740.678 488.949 740.678 503.434 737.363 506.653C734.048 509.872 745.65 529.185 748.965 530.794C752.28 532.404 737.363 574.249 745.65 575.858C753.937 577.468 768.855 556.545 773.827 545.279C778.799 534.013 775.484 377.898 773.827 366.632C772.169 355.366 763.698 331.224 763.698 331.224Z" fill="#575A89"/>
<path d="M809.874 320.867C809.874 320.867 808.633 313.521 816.921 319.958C825.208 326.396 826.865 331.224 826.865 331.224C826.865 331.224 869.959 331.224 871.616 336.053C873.274 340.881 870.629 381.97 870.629 381.97L892.409 460.607C892.409 460.607 922.998 551.717 926.313 554.936C929.627 558.155 899.793 540.451 883.219 553.326C866.644 566.202 836.81 572.64 833.495 564.592C830.18 556.545 793.716 369.851 793.716 369.851C793.716 369.851 793.716 339.272 798.689 336.053C803.661 332.834 809.874 320.867 809.874 320.867Z" fill="#575A89"/>
<path d="M898.136 472.855L891.506 546.889L889.849 553.326L914.71 585.515C914.71 585.515 919.683 567.811 918.025 561.374C916.368 554.936 926.313 482.511 926.313 482.511L898.136 472.855Z" fill="#FFB9B9"/>
<path d="M753.204 273.401C753.204 273.401 745.151 253.07 756.828 246.423L760.049 255.415C760.049 255.415 789.442 238.212 797.093 242.122L789.845 251.506C789.845 251.506 824.07 251.506 826.486 264.408L814.406 264.799C814.406 264.799 827.291 273.01 827.694 286.303L801.924 287.867L814.406 294.905C814.406 294.905 767.699 301.16 756.425 283.175L753.204 273.401Z" fill="#2F2E41"/>
<path d="M746.229 274.204C746.229 274.204 755.51 292.228 767.884 287.722C780.259 283.216 767.884 266.694 767.884 266.694L759.635 262.689L746.229 274.204Z" fill="#2F2E41"/>
<path d="M1044.25 917.745H683.117V918.971H1044.25V917.745Z" fill="black"/>
<path d="M868.302 339.271C868.302 339.271 878.246 340.881 884.876 352.147C891.506 363.413 924.655 437.447 926.312 440.666C927.97 443.885 927.97 487.339 927.97 487.339C927.97 487.339 904.765 474.464 894.821 482.511L893.163 463.198L871.616 389.164L868.302 365.022L868.302 339.271Z" fill="#15803D"/>
</g>
<defs>
<clipPath id="clip0_19_106">
<rect width="1144" height="919" fill="white"/>
</clipPath>
</defs>
</svg>
